<?xml version="1.0" encoding="UTF-8" standalone="no"?>
<!-- Created with Inkscape (http://www.inkscape.org/) -->

<svg
   width="256"
   height="256"
   id="svg5294"
   sodipodi:version="0.32"
   inkscape:version="1.1.1 (3bf5ae0d25, 2021-09-20)"
   version="1.0"
   sodipodi:docname="LOGO.svg"
   inkscape:output_extension="org.inkscape.output.svg.inkscape"
   xmlns:inkscape="http://www.inkscape.org/namespaces/inkscape"
   xmlns:sodipodi="http://sodipodi.sourceforge.net/DTD/sodipodi-0.dtd"
   xmlns="http://www.w3.org/2000/svg"
   xmlns:svg="http://www.w3.org/2000/svg"
   xmlns:rdf="http://www.w3.org/1999/02/22-rdf-syntax-ns#"
   xmlns:cc="http://creativecommons.org/ns#"
   xmlns:dc="http://purl.org/dc/elements/1.1/">
  <defs
     id="defs5296">
    <rect
       x="387.85714"
       y="2.1428571"
       width="198.57143"
       height="63.571429"
       id="rect10946" />
    <inkscape:perspective
       sodipodi:type="inkscape:persp3d"
       inkscape:vp_x="0 : 526.18109 : 1"
       inkscape:vp_y="0 : 1000 : 0"
       inkscape:vp_z="744.09448 : 526.18109 : 1"
       inkscape:persp3d-origin="372.04724 : 350.78739 : 1"
       id="perspective5302" />
  </defs>
  <sodipodi:namedview
     id="base"
     pagecolor="#ffffff"
     bordercolor="#666666"
     borderopacity="1.0"
     gridtolerance="10000"
     guidetolerance="10"
     objecttolerance="10"
     inkscape:pageopacity="0.0"
     inkscape:pageshadow="2"
     inkscape:zoom="1.4"
     inkscape:cx="144.64286"
     inkscape:cy="89.642857"
     inkscape:document-units="px"
     inkscape:current-layer="layer1"
     showgrid="false"
     inkscape:window-width="1920"
     inkscape:window-height="1013"
     inkscape:window-x="-9"
     inkscape:window-y="-9"
     inkscape:pagecheckerboard="0"
     inkscape:window-maximized="1" />
  <metadata
     id="metadata5299">
    <rdf:RDF>
      <cc:Work
         rdf:about="">
        <dc:format>image/svg+xml</dc:format>
        <dc:type
           rdf:resource="http://purl.org/dc/dcmitype/StillImage" />
      </cc:Work>
    </rdf:RDF>
  </metadata>
  <g
     inkscape:label="Layer 1"
     inkscape:groupmode="layer"
     id="layer1">
    <ellipse
       style="fill:#483737;stroke:none"
       id="path18357"
       cx="129.28572"
       cy="128.57143"
       rx="165.08075"
       ry="167.01984" />
    <g
       id="g3540"
       transform="matrix(25.882115,0,0,-25.882115,140.3579,93.386914)"
       style="fill:#c87137">
      <path
         d="m 0,0 c 0.154,-0.123 0.232,-0.49 0.23,-0.486 0.284,-0.09 0.463,-0.278 0.463,-0.278 0.436,0.243 0.446,0.133 0.635,0.278 0.156,0.107 0.149,0.14 0.231,0.427 C 1.635,0.174 1.365,0.152 1.143,0.576 0.756,0.43 0.547,0.496 0.416,0.508 0.357,0.516 0.367,0.279 0,0 m 1.408,-2.807 c -0.054,-0.074 -0.08,-0.089 -0.15,-0.185 -0.112,-0.147 0.033,-0.369 0.105,-0.334 0.084,0.031 0.139,0.199 0.231,0.254 0.047,0.025 0.172,0.209 0.289,0.334 0.086,0.097 0.148,0.14 0.23,0.242 0.139,0.172 0.168,0.303 0.289,0.486 0.075,0.096 0.127,0.125 0.196,0.242 0.361,0.684 0.256,0.991 0.601,1.479 0.106,0.144 0.225,0.18 0.393,0.266 C 3.748,1.115 3.23,1.752 3.234,1.754 2.799,1.5 2.564,1.396 2.113,1.42 1.943,1.422 1.854,1.494 1.686,1.479 1.529,1.473 1.449,1.414 1.293,1.361 1.053,1.287 0.922,1.221 0.67,1.143 0.51,1.098 0.408,1.096 0.242,1.039 0.1,0.979 0.168,1.027 0.068,0.912 -0.061,0.77 -0.029,0.658 -0.15,0.414 -0.301,0.094 -0.283,0.051 -0.197,0.012 -0.254,-0.152 -0.268,-0.262 -0.254,-0.439 -0.238,-0.574 -0.297,-0.668 -0.15,-0.775 0.047,-0.922 0.461,-1.266 0.566,-1.271 0.725,-1.266 1.184,-1.283 1.42,-1.121 1.473,-1.088 1.488,-1.055 1.443,-1.18 1.434,-1.195 0.859,-1.643 0.797,-1.641 0.066,-1.664 0.311,-1.705 0.266,-1.688 c -0.037,0 -0.391,0.43 -0.602,0.278 -0.08,-0.049 -0.117,-0.096 -0.148,-0.184 0.027,-0.056 0.156,-0.146 0.275,-0.22 0.172,-0.11 0.188,-0.225 0.359,-0.266 0.209,-0.047 0.432,-0.016 0.565,-0.033 0.051,-0.014 0.512,0.121 0.799,0.275 C 1.779,-1.701 1.148,-2.102 0.992,-2.299 0.529,-2.445 0.66,-2.451 0.439,-2.496 0.234,-2.543 0.244,-2.531 0.104,-2.576 -0.041,-2.611 -0.16,-2.809 -0.023,-2.912 c 0.082,-0.068 0.337,0.027 0.589,0.035 0.112,0.002 0.567,0.211 0.67,0.266 0.256,0.138 0.448,0.33 0.6,0.439 0.211,0.147 -0.238,-0.404 -0.428,-0.635"
         style="fill:#c87137;fill-opacity:1;fill-rule:evenodd;stroke:none"
         id="path3542" />
    </g>
    <g
       id="g3544"
       transform="matrix(25.882115,0,0,-25.882115,118.21586,88.029314)"
       style="fill:#ffb380">
      <path
         d="M 0,0 C -0.154,0.127 -0.232,0.494 -0.23,0.496 -0.514,0.58 -0.693,0.768 -0.693,0.762 -1.129,0.525 -1.141,0.635 -1.328,0.496 -1.486,0.383 -1.477,0.348 -1.559,0.07 c -0.076,-0.242 0.192,-0.218 0.416,-0.636 0.387,0.14 0.596,0.074 0.727,0.058 C -0.357,-0.512 -0.367,-0.275 0,0 m -1.408,2.807 c 0.054,0.078 0.08,0.093 0.15,0.185 0.11,0.151 -0.033,0.373 -0.103,0.346 C -1.447,3.299 -1.502,3.131 -1.605,3.072 -1.643,3.051 -1.768,2.867 -1.883,2.738 -1.969,2.645 -2.031,2.602 -2.113,2.494 -2.254,2.328 -2.281,2.197 -2.402,2.021 -2.479,1.916 -2.531,1.889 -2.598,1.768 -2.959,1.088 -2.855,0.781 -3.199,0.301 -3.305,0.146 -3.424,0.113 -3.592,0.023 c -0.156,-1.136 0.36,-1.771 0.358,-1.767 0.435,0.248 0.668,0.351 1.121,0.336 0.17,-0.01 0.259,-0.082 0.427,-0.071 0.157,0.01 0.237,0.069 0.393,0.116 0.24,0.08 0.371,0.146 0.611,0.22 0.172,0.049 0.272,0.051 0.44,0.116 0.14,0.052 0.074,0.004 0.174,0.115 0.127,0.146 0.097,0.258 0.207,0.496 0.162,0.326 0.144,0.369 0.058,0.404 C 0.252,0.156 0.268,0.264 0.254,0.439 0.236,0.576 0.295,0.672 0.15,0.773 -0.047,0.926 -0.461,1.27 -0.566,1.271 -0.725,1.27 -1.186,1.287 -1.42,1.133 -1.475,1.092 -1.488,1.059 -1.443,1.178 c 0.009,0.021 0.584,0.468 0.646,0.474 0.731,0.016 0.486,0.057 0.531,0.036 C -0.23,1.691 0.123,1.262 0.336,1.41 0.414,1.463 0.453,1.51 0.486,1.594 0.457,1.654 0.328,1.744 0.209,1.813 0.037,1.928 0.02,2.043 -0.15,2.08 -0.359,2.131 -0.584,2.1 -0.715,2.125 -0.766,2.131 -1.227,1.996 -1.512,1.848 c -0.269,-0.143 0.364,0.257 0.52,0.463 0.463,0.138 0.33,0.144 0.554,0.195 0.204,0.041 0.194,0.029 0.334,0.07 C 0.039,2.615 0.16,2.811 0.023,2.922 -0.061,2.984 -0.314,2.889 -0.566,2.887 -0.678,2.879 -1.133,2.67 -1.236,2.611 -1.494,2.477 -1.684,2.285 -1.836,2.184 -2.049,2.029 -1.598,2.578 -1.408,2.807"
         style="fill:#ffb380;fill-opacity:1;fill-rule:evenodd;stroke:none"
         id="path3546" />
    </g>
    <text
       xml:space="preserve"
       id="text10944"
       style="font-style:normal;font-variant:normal;font-weight:normal;font-stretch:normal;font-size:40px;line-height:1.25;font-family:'Freestyle Script';-inkscape-font-specification:'Freestyle Script, Normal';font-variant-ligatures:normal;font-variant-caps:normal;font-variant-numeric:normal;font-variant-east-asian:normal;white-space:pre;shape-inside:url(#rect10946);fill:#c8b7b7;fill-opacity:1;stroke:none"
       transform="matrix(1.3957715,0,0,1.3312276,-507.37964,182.54362)"><tspan
         x="387.85742"
         y="34.447266"
         id="tspan18695">Finger Spell</tspan></text>
  </g>
</svg>
